<svg id="Group_227" data-name="Group 227" xmlns="http://www.w3.org/2000/svg" width="897" height="80" viewBox="0 0 897 80">
  <path id="Path_1" data-name="Path 1" d="M0,0H897L787,80H0Z" fill="#ec3323"/>
  <text id="Need_Help_:_" data-name="Need Help?:  " transform="translate(182 46)" fill="#fff" font-size="22" font-family="Montserrat-Medium, Montserrat" font-weight="500"><tspan x="0" y="0" xml:space="preserve">Need Help?:  </tspan></text>
  <text id="Call:_971_123_45_978" data-name="Call: +971 123 45 978" transform="translate(377 46)" fill="#fff" font-size="22" font-family="Montserrat-SemiBold, Montserrat" font-weight="600"><tspan x="0" y="0">Call: +971 123 45 978</tspan></text>
  <g id="Group_5" data-name="Group 5" transform="translate(337.16 28)">
    <path id="Path_19" data-name="Path 19" d="M29.924,18.046a.447.447,0,0,0,.449.449.926.926,0,0,1,.925.925.449.449,0,0,0,.9,0A1.824,1.824,0,0,0,30.373,17.6.45.45,0,0,0,29.924,18.046Zm7.309,1.823a.447.447,0,0,0,.449-.449,7.316,7.316,0,0,0-7.309-7.309.449.449,0,0,0,0,.9,6.418,6.418,0,0,1,6.412,6.412A.45.45,0,0,0,37.234,19.868Z" transform="translate(-19.486 -9.367)" fill="#fff"/>
    <path id="Path_20" data-name="Path 20" d="M21.231,16.053a.449.449,0,1,0,.9,0,4.57,4.57,0,0,0-4.566-4.566.449.449,0,1,0,0,.9A3.672,3.672,0,0,1,21.231,16.053ZM17.563,6a.449.449,0,1,0,0,.9,9.168,9.168,0,0,1,9.159,9.155.449.449,0,1,0,.9,0A10.066,10.066,0,0,0,17.563,6ZM21.95,20.785l-.588.319a2.588,2.588,0,0,1-3.053-.444l-4.741-4.741a2.594,2.594,0,0,1-.444-3.058l.319-.584a3.458,3.458,0,0,0,.382-2.155,3.461,3.461,0,0,0-3.435-2.977A3.457,3.457,0,0,0,7.928,8.16L7.7,8.393c-1.212,1.212-1.351,3.3-.4,5.886a21.813,21.813,0,0,0,5.109,7.534c3.641,3.641,7.7,5.738,10.605,5.738a3.85,3.85,0,0,0,2.815-1.019l.233-.233a3.475,3.475,0,0,0,1.019-2.46,3.478,3.478,0,0,0-5.136-3.053Z" transform="translate(-6.676 -6)" fill="#fff"/>
  </g>
</svg>
