<svg xmlns="http://www.w3.org/2000/svg" width="36" height="36" viewBox="0 0 36 36">
  <g id="Group_240" data-name="Group 240" transform="translate(-895 -6913)">
    <circle id="Ellipse_17" data-name="Ellipse 17" cx="18" cy="18" r="18" transform="translate(895 6913)" fill="#253241"/>
    <g id="Brand_Logos" data-name="Brand Logos" transform="translate(900.394 6916.465)">
      <path id="Path_171" data-name="Path 171" d="M5,7H4.975a2.235,2.235,0,1,1,.057-4.457A2.235,2.235,0,1,1,5,7Z" fill="#fff"/>
      <rect id="Rectangle_107" data-name="Rectangle 107" width="4" height="12" transform="translate(3.018 10)" fill="#fff"/>
      <path id="Path_172" data-name="Path 172" d="M17.517,10a4.473,4.473,0,0,0-3.5,1.7V10h-4V22h4V16.5a2,2,0,0,1,4,0V22h4V14.5a4.5,4.5,0,0,0-4.5-4.5Z" fill="#fff"/>
    </g>
  </g>
</svg>
