<svg xmlns="http://www.w3.org/2000/svg" width="159.313" height="81.632" viewBox="0 0 159.313 81.632">
  <g id="Group_235" data-name="Group 235" transform="translate(1661.208 -35.321)">
    <path id="Path_281" data-name="Path 281" d="M117.254,80.61c-.366.079-.62.134-.737.162-.252.055-.773-.392-.978-1.033-.423-1.327-.223-3.087.673-3.49,1.507-.384,5.007-1.716,6.109-2.158a2.242,2.242,0,0,0,1.372-2.415,1.933,1.933,0,0,0-2.158-1.482h0c-1.956.13-22.107.475-23.737.359-.614-.044-1.544-.965-1.951-1.933-.191-.453-.162-.7-.13-.735.015-.013.127-.051.4.006l.05.007c.537.053,5.716.242,11.714.46,7.77.283,16.576.6,18.329.737a1.952,1.952,0,0,0,2.265-1.648c.088-.932-.593-2.042-2.3-2.274-2.638-.36-30.146-2.154-32.088-2.276-.64-.04-1.7-1.147-2.309-2.416a2.389,2.389,0,0,1-.3-2.024c.182-.259.609-.281.945-.251,1.917.444,35.87,5.409,37.327,5.621l.187-.916c-3.891-1.024-37.545-9.877-39.575-10.284-3.43-1.413-4.506-4.794-4.061-5.912.062-.156.207-.521.887-.257,2.732,1.069,46.6,15.311,48.486,15.923.75.208,2.344.866,2.478,1.575.072.381-.353.79-.757,1.1a14.838,14.838,0,0,1-1.7,1.361c-.425.3-.907.642-1.652,1.273-1.047.972-1.447,1.875-1.19,2.687.479,1.513,3.066,1.908,3.359,1.948l8.683,0,.063,0c.294-.04,2.88-.435,3.359-1.948.256-.812-.144-1.715-1.207-2.7-.728-.616-1.21-.958-1.636-1.259a15.259,15.259,0,0,1-1.735-1.39c-.369-.276-.793-.686-.721-1.066.134-.71,1.728-1.368,2.5-1.582,1.866-.606,45.733-14.848,48.465-15.917.679-.265.825.1.887.257.445,1.118-.631,4.5-4.061,5.912-2.029.408-35.683,9.26-39.575,10.284l.187.916c1.457-.213,35.409-5.178,37.327-5.621.338-.031.764-.008.945.251.243.348.126,1.142-.3,2.024-.611,1.27-1.669,2.376-2.309,2.416-1.942.121-29.451,1.916-32.087,2.276-1.7.232-2.385,1.342-2.3,2.274a1.957,1.957,0,0,0,2.276,1.647c1.742-.134,10.548-.454,18.317-.737,6-.218,11.177-.407,11.715-.46l.05-.007c.268-.057.381-.018.4-.006.032.037.06.282-.129.733-.408.969-1.337,1.891-1.952,1.935-1.631.118-21.782-.229-23.768-.36a1.921,1.921,0,0,0-2.13,1.483,2.239,2.239,0,0,0,1.358,2.41c1.116.446,4.617,1.779,6.123,2.163.9.4,1.1,2.163.673,3.49-.2.642-.524,1.047-.776.991-.1-.024-.319-.071-.617-.136q.649.449,1.256.922a2.509,2.509,0,0,0,1.03-1.493c.471-1.477.4-3.977-1.236-4.653l-.065-.021c-1.438-.36-4.93-1.689-6.053-2.138a1.324,1.324,0,0,1-.769-1.373c.1-.586.713-.709,1.176-.71,1.964.131,22.221.476,23.866.359,1.187-.085,2.314-1.5,2.734-2.473a1.645,1.645,0,0,0,0-1.722,1.225,1.225,0,0,0-1.286-.324c-.626.054-5.975.249-11.633.454-7.779.283-16.595.6-18.344.738-.835.043-1.242-.371-1.283-.8-.047-.5.4-1.109,1.491-1.258,2.612-.356,30.08-2.148,32.019-2.269,1.135-.071,2.416-1.535,3.1-2.945.35-.727.844-2.079.221-2.968a1.831,1.831,0,0,0-1.837-.642l-.077.014c-.82.224-16.407,2.545-28.944,4.39,13.486-3.54,30.67-8.029,31.4-8.137l.118-.031c3.73-1.509,5.351-5.315,4.623-7.144a1.478,1.478,0,0,0-2.1-.783c-2.707,1.059-47.957,15.749-48.393,15.892-.293.081-2.87.83-3.15,2.3a2.032,2.032,0,0,0,1.044,1.962,15.737,15.737,0,0,0,1.791,1.434c.43.3.874.618,1.556,1.195.521.484,1.106,1.174.935,1.717-.25.793-1.944,1.207-2.562,1.3h-8.553c-.619-.091-2.313-.505-2.563-1.3-.171-.543.414-1.233.919-1.7.7-.59,1.142-.9,1.572-1.209a15.252,15.252,0,0,0,1.756-1.405c.846-.635,1.21-1.3,1.079-1.991-.28-1.474-2.857-2.223-3.13-2.3-.457-.148-45.707-14.839-48.414-15.9a1.478,1.478,0,0,0-2.1.783C84.7,48.2,86.32,52,90.05,53.513l.115.03c.73.109,17.914,4.6,31.4,8.138-12.537-1.845-28.123-4.166-28.944-4.39l-.076-.014a1.83,1.83,0,0,0-1.837.642c-.623.889-.128,2.241.222,2.968.679,1.41,1.96,2.874,3.095,2.945,1.939.121,29.406,1.913,32.02,2.269,1.091.149,1.537.756,1.49,1.258-.04.43-.453.843-1.271.8-1.76-.135-10.577-.456-18.355-.739-5.658-.206-11.007-.4-11.633-.454a1.225,1.225,0,0,0-1.286.324,1.645,1.645,0,0,0,0,1.722c.421.976,1.547,2.389,2.735,2.473,1.641.117,21.9-.228,23.835-.357.493,0,1.1.123,1.207.709a1.327,1.327,0,0,1-.783,1.378c-1.109.444-4.6,1.774-6.039,2.133l-.065.021c-1.64.676-1.707,3.176-1.236,4.653a2.768,2.768,0,0,0,1.279,1.562" transform="translate(-1722.135 -10.107)" fill="#fff"/>
    <g id="Group_224" data-name="Group 224" transform="translate(-1661.208 63.908)">
      <path id="Path_282" data-name="Path 282" d="M182.525,116.715H140.893c-5.519-6.124-15.881-10.261-27.738-10.261s-22.219,4.137-27.738,10.261H43.426a10.106,10.106,0,0,0-10.107,10.106h0a10.107,10.107,0,0,0,10.107,10.107H85.417c5.519,6.124,15.881,10.261,27.738,10.261s22.219-4.137,27.738-10.261h41.632a10.106,10.106,0,0,0,10.106-10.107h0A10.106,10.106,0,0,0,182.525,116.715ZM57.473,121.2H57.08a1.7,1.7,0,0,0-.856.187.869.869,0,0,0-.357.419,3.621,3.621,0,0,0-.1,1.115V130.9a3.97,3.97,0,0,0,.1,1.16.886.886,0,0,0,.4.406,1.625,1.625,0,0,0,.812.174h.393v.33H51.156v-.33h.393a1.7,1.7,0,0,0,.857-.187.872.872,0,0,0,.357-.429,3.685,3.685,0,0,0,.1-1.124v-8.966l-4.639,11.036h-.214L43.3,122.01v8.52a7.5,7.5,0,0,0,.045,1.1,1.271,1.271,0,0,0,.5.727,2.093,2.093,0,0,0,1.218.281v.33h-4.14v-.33h.125a1.888,1.888,0,0,0,.749-.129,1.209,1.209,0,0,0,.527-.371,1.7,1.7,0,0,0,.276-.651q.018-.1.018-.91V122.92a3.9,3.9,0,0,0-.1-1.147.9.9,0,0,0-.4-.4,1.632,1.632,0,0,0-.812-.174h-.384v-.33h4.942l3.4,7.975,3.283-7.975h4.924Zm12.543,9.724a5.99,5.99,0,0,1-5.041,2.32,6.115,6.115,0,0,1-5.049-2.213,6.4,6.4,0,0,1-1.41-4.148,6.033,6.033,0,0,1,1.833-4.492,5.834,5.834,0,0,1,4.51-1.691,6,6,0,0,1,6.5,6.173A6.451,6.451,0,0,1,70.016,130.922Zm15.353,2.043H81.559l-3.9-5.513h-.794v3.39a3.753,3.753,0,0,0,.12,1.236.884.884,0,0,0,.424.406,2.854,2.854,0,0,0,1.133.151v.33H72.353v-.33a2.772,2.772,0,0,0,1.137-.156.911.911,0,0,0,.419-.406,3.691,3.691,0,0,0,.12-1.231v-7.851a3.74,3.74,0,0,0-.12-1.236.88.88,0,0,0-.424-.406,2.85,2.85,0,0,0-1.133-.152v-.33h5.62a12.28,12.28,0,0,1,3.212.3,3.234,3.234,0,0,1,1.659,1.12,3,3,0,0,1,.643,1.914,2.859,2.859,0,0,1-.964,2.212,3.98,3.98,0,0,1-1.722.83l2.908,4.095a6.163,6.163,0,0,0,.812.99,1.51,1.51,0,0,0,.847.3ZM113.155,108.8c10.185,0,19.184,3.143,24.519,7.919h-7.2c-4.3-2.989-10.473-4.867-17.323-4.867s-13.024,1.878-17.324,4.867H88.636C93.971,111.94,102.97,108.8,113.155,108.8Zm9.923,21.233a3.467,3.467,0,0,0,1.325,1.927,3.8,3.8,0,0,0,2.173.616,4.46,4.46,0,0,0,.9-.094,6.327,6.327,0,0,0,.941-.272v-2.516a2.7,2.7,0,0,0-.1-.923.907.907,0,0,0-.406-.379,1.519,1.519,0,0,0-.745-.17h-.312v-.33h5.88v.33a2.592,2.592,0,0,0-.933.183.914.914,0,0,0-.406.46,2.527,2.527,0,0,0-.08.83v2.516a11.912,11.912,0,0,1-2.413.781,12.646,12.646,0,0,1-2.6.263,7.55,7.55,0,0,1-2.859-.468,7.128,7.128,0,0,1-2.007-1.231,5.792,5.792,0,0,1-1.36-1.717,6,6,0,0,1-.624-2.756,6.213,6.213,0,0,1,1.918-4.612,6.609,6.609,0,0,1,4.826-1.882,8.423,8.423,0,0,1,1.624.143,8.337,8.337,0,0,1,1.271.406,5.3,5.3,0,0,0,1.039.334.7.7,0,0,0,.464-.183,1.624,1.624,0,0,0,.393-.691h.33v4.265h-.33a5.434,5.434,0,0,0-1.793-2.659,4.223,4.223,0,0,0-2.614-.91,3.371,3.371,0,0,0-2.257.763,4.128,4.128,0,0,0-1.276,2.128,10.541,10.541,0,0,0-.375,2.8A10.237,10.237,0,0,0,123.078,130.03Zm-14.394,2.24a1.749,1.749,0,0,0,1.093.365h.285v.33h-4.291v-.33a1.94,1.94,0,0,0,1.391-.41,1.918,1.918,0,0,0,.393-1.365v-8.538L107.3,122a2.35,2.35,0,0,0-.678-.633,2.036,2.036,0,0,0-.847-.17v-.33h4.291l5.968,7.5v-5.2a2.463,2.463,0,0,0-.312-1.472,1.728,1.728,0,0,0-1.436-.5v-.33h4v.33a3.05,3.05,0,0,0-1.03.254,1.021,1.021,0,0,0-.41.509,3.447,3.447,0,0,0-.148,1.209v10.072h-.3l-8.181-10.072v7.69A1.7,1.7,0,0,0,108.685,132.269Zm-5.2-.214a.917.917,0,0,0,.4.406,1.6,1.6,0,0,0,.807.174h.4v.33H98.768v-.33h.4a1.676,1.676,0,0,0,.847-.187.814.814,0,0,0,.357-.429,3.685,3.685,0,0,0,.1-1.124v-7.958a3.992,3.992,0,0,0-.1-1.16.9.9,0,0,0-.4-.406,1.607,1.607,0,0,0-.808-.174h-.4v-.33h6.325v.33h-.4a1.675,1.675,0,0,0-.847.187.856.856,0,0,0-.366.428,3.691,3.691,0,0,0-.1,1.124V130.9A3.813,3.813,0,0,0,103.483,132.055Zm-18.016.91v-.33a1.94,1.94,0,0,0,1.391-.41,1.918,1.918,0,0,0,.393-1.365v-8.538L86.993,122a2.351,2.351,0,0,0-.678-.633,2.036,2.036,0,0,0-.847-.17v-.33h4.291l5.968,7.5v-5.2a2.459,2.459,0,0,0-.312-1.472,1.726,1.726,0,0,0-1.436-.5v-.33h4v.33a3.047,3.047,0,0,0-1.03.254,1.022,1.022,0,0,0-.41.509,3.46,3.46,0,0,0-.147,1.209v10.072h-.3L87.9,123.17v7.69a1.7,1.7,0,0,0,.477,1.41,1.75,1.75,0,0,0,1.093.365h.286v.33Zm27.688,11.882c-10.185,0-19.184-3.143-24.519-7.919h7.195c4.3,2.989,10.474,4.867,17.324,4.867s13.024-1.878,17.324-4.867h7.195C132.339,141.7,123.34,144.847,113.155,144.847Zm32.579-12.689a4.247,4.247,0,0,1-3,1.093,4.868,4.868,0,0,1-1.079-.116,8.2,8.2,0,0,1-1.276-.437,1.927,1.927,0,0,0-.7-.178.874.874,0,0,0-.491.178,1.242,1.242,0,0,0-.419.544h-.33v-4.568h.33a5.235,5.235,0,0,0,1.512,2.94,3.54,3.54,0,0,0,2.413,1.012,2.262,2.262,0,0,0,1.592-.544,1.639,1.639,0,0,0,.366-2.1,2.636,2.636,0,0,0-.691-.763,10.485,10.485,0,0,0-1.641-.941,14.2,14.2,0,0,1-2.373-1.383,4.245,4.245,0,0,1-1.111-1.276,3.16,3.16,0,0,1-.388-1.552,3.283,3.283,0,0,1,1.062-2.463,3.714,3.714,0,0,1,2.677-1.017,4.557,4.557,0,0,1,1.142.143,5.726,5.726,0,0,1,1.022.4,2.4,2.4,0,0,0,.843.29.478.478,0,0,0,.366-.142,1.651,1.651,0,0,0,.25-.687h.267l.1,4.032H145.8a4.131,4.131,0,0,0-1.271-2.44,3.2,3.2,0,0,0-2.19-.923,2.05,2.05,0,0,0-1.441.486,1.48,1.48,0,0,0-.531,1.12,1.358,1.358,0,0,0,.187.714,3.035,3.035,0,0,0,.83.83,18.712,18.712,0,0,0,1.936,1.044,8.6,8.6,0,0,1,2.863,1.972,3.335,3.335,0,0,1,.732,2.123A3.434,3.434,0,0,1,145.734,132.157Zm11.531-10.433a3.054,3.054,0,0,0-1.187-.161h-.9V130.9a3.836,3.836,0,0,0,.1,1.16.918.918,0,0,0,.4.406,1.621,1.621,0,0,0,.816.174h.4v.33h-6.334v-.33h.4a1.677,1.677,0,0,0,.848-.187.853.853,0,0,0,.366-.429,3.685,3.685,0,0,0,.1-1.124v-9.332H151.4a2.542,2.542,0,0,0-1.775.518,3.419,3.419,0,0,0-.981,2.061h-.339v-3.274h10.866v3.274h-.321a5.174,5.174,0,0,0-.633-1.628A2.438,2.438,0,0,0,157.265,121.725Zm14.2,11.24h-5.852v-.33h.241a1.831,1.831,0,0,0,.99-.2.476.476,0,0,0,.2-.41,1.081,1.081,0,0,0-.054-.33q-.018-.08-.267-.669l-.642-1.507h-4.273L161.3,130.7a2.625,2.625,0,0,0-.25.972.808.808,0,0,0,.41.75,3.436,3.436,0,0,0,1.187.214v.33H158.62v-.33a1.8,1.8,0,0,0,1.07-.539,7.176,7.176,0,0,0,1.035-1.825l4.327-9.652h.17l4.362,9.92a6.034,6.034,0,0,0,1.026,1.775,1.4,1.4,0,0,0,.856.321Zm13.56,0h-3.809l-3.9-5.513h-.794v3.39a3.74,3.74,0,0,0,.12,1.236.881.881,0,0,0,.423.406,2.856,2.856,0,0,0,1.133.151v.33h-6.191v-.33a2.769,2.769,0,0,0,1.137-.156.909.909,0,0,0,.419-.406,3.7,3.7,0,0,0,.12-1.231v-7.851a3.753,3.753,0,0,0-.12-1.236.881.881,0,0,0-.423-.406,2.854,2.854,0,0,0-1.133-.152v-.33h5.62a12.285,12.285,0,0,1,3.212.3,3.236,3.236,0,0,1,1.659,1.12,3,3,0,0,1,.642,1.914,2.859,2.859,0,0,1-.964,2.212,3.98,3.98,0,0,1-1.722.83l2.909,4.095a6.191,6.191,0,0,0,.812.99,1.509,1.509,0,0,0,.847.3Z" transform="translate(-33.319 -106.454)" fill="#fff"/>
      <path id="Path_283" data-name="Path 283" d="M127.236,138.613h-.955v5.3h.509a5.7,5.7,0,0,0,1.856-.227,1.853,1.853,0,0,0,.968-.821,3.007,3.007,0,0,0,.352-1.548,2.349,2.349,0,0,0-2.73-2.7Z" transform="translate(-82.733 -123.548)" fill="#fff"/>
      <path id="Path_284" data-name="Path 284" d="M339.976,138.613h-.954v5.3h.508a5.7,5.7,0,0,0,1.856-.227,1.853,1.853,0,0,0,.968-.821,3,3,0,0,0,.352-1.548,2.349,2.349,0,0,0-2.73-2.7Z" transform="translate(-195.816 -123.548)" fill="#fff"/>
      <path id="Path_285" data-name="Path 285" d="M98.8,138.571a2.683,2.683,0,0,0-1.592-.491,2.726,2.726,0,0,0-2.525,1.695,9.064,9.064,0,0,0-.7,4,7.757,7.757,0,0,0,1.088,4.576,2.481,2.481,0,0,0,2.123,1.035,2.546,2.546,0,0,0,1.534-.446,3.661,3.661,0,0,0,1.222-1.825,10.135,10.135,0,0,0,.437-3.269,10.861,10.861,0,0,0-.446-3.591A3.5,3.5,0,0,0,98.8,138.571Z" transform="translate(-65.565 -123.265)" fill="#fff"/>
      <path id="Path_286" data-name="Path 286" d="M308.265,149.56h3.658l-1.8-4.166Z" transform="translate(-179.467 -127.152)" fill="#fff"/>
    </g>
    <g id="Group_226" data-name="Group 226" transform="translate(-1637.847 108.259)">
      <g id="Group_225" data-name="Group 225">
        <path id="Path_287" data-name="Path 287" d="M83.187,208v-6.631H86a4.83,4.83,0,0,1,1.545.178,1.526,1.526,0,0,1,.771.636,1.907,1.907,0,0,1,.289,1.044,1.772,1.772,0,0,1-.439,1.233,2.106,2.106,0,0,1-1.312.612,3.13,3.13,0,0,1,.717.557,7.531,7.531,0,0,1,.762,1.076l.81,1.294h-1.6l-.968-1.443a9.385,9.385,0,0,0-.705-.975,1.027,1.027,0,0,0-.4-.275,2.209,2.209,0,0,0-.674-.075h-.271V208Zm1.339-3.826h.991a5.141,5.141,0,0,0,1.2-.081.722.722,0,0,0,.375-.281.864.864,0,0,0,.136-.5.8.8,0,0,0-.178-.541.821.821,0,0,0-.5-.26q-.163-.023-.977-.022H84.526Z" transform="translate(-83.187 -201.258)" fill="#fff"/>
        <path id="Path_288" data-name="Path 288" d="M103.389,208v-6.631h4.916v1.122h-3.578v1.47h3.329v1.117h-3.329v1.8h3.7V208Z" transform="translate(-93.925 -201.258)" fill="#fff"/>
        <path id="Path_289" data-name="Path 289" d="M122.54,208v-6.631h1.3l2.714,4.428v-4.428H127.8V208h-1.343l-2.673-4.324V208Z" transform="translate(-104.105 -201.258)" fill="#fff"/>
        <path id="Path_290" data-name="Path 290" d="M143.676,208v-5.509h-1.967v-1.122h5.269v1.122h-1.963V208Z" transform="translate(-114.294 -201.258)" fill="#fff"/>
        <path id="Path_291" data-name="Path 291" d="M176.64,208h-1.456L174.6,206.5h-2.65L171.407,208h-1.42l2.583-6.631h1.416Zm-2.465-2.623-.913-2.461-.9,2.461Z" transform="translate(-129.326 -201.258)" fill="#fff"/>
        <path id="Path_292" data-name="Path 292" d="M206.3,205.436l1.3.412a2.912,2.912,0,0,1-.993,1.612,3.124,3.124,0,0,1-3.933-.375,3.452,3.452,0,0,1-.851-2.468,3.626,3.626,0,0,1,.855-2.571,2.931,2.931,0,0,1,2.248-.916,2.758,2.758,0,0,1,1.976.719,2.615,2.615,0,0,1,.678,1.221l-1.325.316a1.37,1.37,0,0,0-1.4-1.113,1.508,1.508,0,0,0-1.2.529,2.6,2.6,0,0,0-.459,1.715,2.783,2.783,0,0,0,.452,1.791,1.469,1.469,0,0,0,1.176.534,1.341,1.341,0,0,0,.918-.339A1.97,1.97,0,0,0,206.3,205.436Z" transform="translate(-146.25 -201.13)" fill="#fff"/>
        <path id="Path_293" data-name="Path 293" d="M227.756,208H226.3l-.579-1.506h-2.65L222.523,208H221.1l2.582-6.631H225.1Zm-2.465-2.623-.913-2.461-.9,2.461Z" transform="translate(-156.496 -201.258)" fill="#fff"/>
        <path id="Path_294" data-name="Path 294" d="M242.763,208v-6.631h2.818a4.827,4.827,0,0,1,1.544.178,1.525,1.525,0,0,1,.772.636,1.911,1.911,0,0,1,.289,1.044,1.77,1.77,0,0,1-.439,1.233,2.1,2.1,0,0,1-1.311.612,3.13,3.13,0,0,1,.717.557,7.607,7.607,0,0,1,.762,1.076l.809,1.294h-1.6l-.968-1.443a9.385,9.385,0,0,0-.705-.975,1.024,1.024,0,0,0-.4-.275,2.209,2.209,0,0,0-.674-.075H244.1V208Zm1.339-3.826h.99a5.141,5.141,0,0,0,1.2-.081.722.722,0,0,0,.375-.281.864.864,0,0,0,.136-.5.794.794,0,0,0-.179-.541.817.817,0,0,0-.5-.26q-.163-.023-.977-.022H244.1Z" transform="translate(-168.01 -201.258)" fill="#fff"/>
        <path id="Path_295" data-name="Path 295" d="M276.274,209.823H275.4a8.816,8.816,0,0,1-1.054-2.171,7.1,7.1,0,0,1-.362-2.18,6.84,6.84,0,0,1,.448-2.474,8.644,8.644,0,0,1,.986-1.868h.868a13.689,13.689,0,0,0-.853,2.331,8.752,8.752,0,0,0-.1,3.557,9.833,9.833,0,0,0,.378,1.479Q275.875,208.959,276.274,209.823Z" transform="translate(-184.606 -201.13)" fill="#fff"/>
        <path id="Path_296" data-name="Path 296" d="M281.053,208.064v-6.577h1.339v5.459h3.329v1.117Z" transform="translate(-188.363 -201.32)" fill="#fff"/>
        <path id="Path_297" data-name="Path 297" d="M293.131,208.064v-6.577h1.339v5.459H297.8v1.117Z" transform="translate(-194.783 -201.32)" fill="#fff"/>
        <path id="Path_298" data-name="Path 298" d="M309.109,205.436l1.3.412a2.911,2.911,0,0,1-.993,1.612,3.124,3.124,0,0,1-3.933-.375,3.451,3.451,0,0,1-.85-2.468,3.624,3.624,0,0,1,.855-2.571,2.93,2.93,0,0,1,2.248-.916,2.76,2.76,0,0,1,1.977.719,2.619,2.619,0,0,1,.678,1.221l-1.325.316a1.371,1.371,0,0,0-1.4-1.113,1.509,1.509,0,0,0-1.2.529,2.593,2.593,0,0,0-.459,1.715,2.783,2.783,0,0,0,.452,1.791,1.469,1.469,0,0,0,1.176.534,1.341,1.341,0,0,0,.918-.339A1.973,1.973,0,0,0,309.109,205.436Z" transform="translate(-200.896 -201.13)" fill="#fff"/>
        <path id="Path_299" data-name="Path 299" d="M318.63,209.823q.375-.805.529-1.235a9.143,9.143,0,0,0,.285-.99,10.273,10.273,0,0,0,.194-1.065,8.3,8.3,0,0,0,.063-1.034,8.715,8.715,0,0,0-.23-2.037,13.537,13.537,0,0,0-.851-2.331h.864a8.308,8.308,0,0,1,1.061,2.062,6.708,6.708,0,0,1,.378,2.212,7.645,7.645,0,0,1-.3,2.026,8.534,8.534,0,0,1-1.117,2.393Z" transform="translate(-208.332 -201.13)" fill="#fff"/>
      </g>
    </g>
    <path id="Path_300" data-name="Path 300" d="M203.7,106.454" transform="translate(-1785.09 -42.546)" fill="#fff"/>
  </g>
</svg>
