<svg xmlns="http://www.w3.org/2000/svg" width="36" height="36" viewBox="0 0 36 36">
  <g id="Group_238" data-name="Group 238" transform="translate(-990 -6913)">
    <circle id="Ellipse_21" data-name="Ellipse 21" cx="18" cy="18" r="18" transform="translate(990 6913)" fill="#253241"/>
    <g id="Group_146" data-name="Group 146" transform="translate(996 6919)">
      <path id="Path_178" data-name="Path 178" d="M21.99,6.547a10.589,10.589,0,0,0-.1-1.282,4.312,4.312,0,0,0-.362-1.089,3.853,3.853,0,0,0-1.695-1.7,4.3,4.3,0,0,0-1.082-.362,10.523,10.523,0,0,0-1.292-.105C17.272,2,17.034,2,16.925,2L7.077,2c-.109,0-.347,0-.53.01a10.565,10.565,0,0,0-1.282.1,4.312,4.312,0,0,0-1.089.362,3.854,3.854,0,0,0-1.7,1.695,4.3,4.3,0,0,0-.362,1.082,10.546,10.546,0,0,0-.105,1.292C2,6.728,2,6.966,2,7.075l0,9.848c0,.109,0,.347.01.53a10.565,10.565,0,0,0,.1,1.282,4.313,4.313,0,0,0,.362,1.089,3.854,3.854,0,0,0,1.695,1.7,4.3,4.3,0,0,0,1.083.362,10.52,10.52,0,0,0,1.292.105c.183.007.421.01.53.01l9.848,0c.109,0,.347,0,.53-.01a10.578,10.578,0,0,0,1.282-.1,4.316,4.316,0,0,0,1.089-.362,3.854,3.854,0,0,0,1.7-1.695,4.3,4.3,0,0,0,.362-1.082,10.533,10.533,0,0,0,.106-1.292c.007-.183.01-.421.01-.53l0-9.848C22,6.968,22,6.73,21.99,6.547Zm-9.774,12.41h0a7.126,7.126,0,0,1-3.407-.867l-3.78.991,1.011-3.693a7.13,7.13,0,1,1,6.178,3.57Z" fill="#fff"/>
      <path id="Path_179" data-name="Path 179" d="M12.219,5.9A5.927,5.927,0,0,0,7.2,14.977l.141.224-.6,2.186L8.982,16.8l.216.128a5.918,5.918,0,0,0,3.016.826h0a5.926,5.926,0,1,0,0-11.852Zm3.485,8.47a1.834,1.834,0,0,1-1.2.847,2.443,2.443,0,0,1-1.122-.07,10.276,10.276,0,0,1-1.016-.375,7.94,7.94,0,0,1-3.043-2.689,3.463,3.463,0,0,1-.727-1.842,2,2,0,0,1,.623-1.486.655.655,0,0,1,.475-.223c.119,0,.238,0,.341.006s.256-.042.4.306.5,1.233.549,1.322a.328.328,0,0,1,.015.312,1.216,1.216,0,0,1-.178.3c-.089.1-.187.232-.267.312s-.182.185-.078.363a5.366,5.366,0,0,0,.991,1.234,4.863,4.863,0,0,0,1.432.884c.178.089.282.074.386-.045s.445-.52.564-.7.237-.149.4-.089,1.039.49,1.217.579.3.134.341.208a1.488,1.488,0,0,1-.1.847Z" fill="#fff"/>
    </g>
  </g>
</svg>
