<svg xmlns="http://www.w3.org/2000/svg" width="36" height="36" viewBox="0 0 36 36">
  <g id="Group_239" data-name="Group 239" transform="translate(-943 -6913)">
    <circle id="Ellipse_18" data-name="Ellipse 18" cx="18" cy="18" r="18" transform="translate(943 6913)" fill="#253241"/>
    <path id="Path_222" data-name="Path 222" d="M18.98,8.724a6.987,6.987,0,0,0-.747-3.379,2.346,2.346,0,0,0-1.4-.832,66.334,66.334,0,0,0-6.821-.24,66.218,66.218,0,0,0-6.821.24,2.4,2.4,0,0,0-1.2.606,4.4,4.4,0,0,0-.9,2.822,38.882,38.882,0,0,0,0,5.3,7.294,7.294,0,0,0,.247,1.636A2.568,2.568,0,0,0,1.917,16a2.338,2.338,0,0,0,1.22.634,36.565,36.565,0,0,0,5.319.268h0c2.859.046,5.378,0,8.345-.226a2.366,2.366,0,0,0,1.256-.642,2.048,2.048,0,0,0,.494-.79,8.546,8.546,0,0,0,.43-2.779C19.008,11.976,19.008,9.211,18.98,8.724ZM13,10.41l0,0c-.678.376-1.463.774-2.289,1.194s-1.7.864-2.554,1.326V7.863h0c.808.423,1.607.839,2.41,1.26s1.609.844,2.433,1.285l.01-.005Z" transform="translate(950.999 6920.547)" fill="#fff"/>
  </g>
</svg>
